<?xml version="1.0" encoding="UTF-8"?>
<!DOCTYPE svg PUBLIC "-//W3C//DTD SVG 1.1//EN" "http://www.w3.org/Graphics/SVG/1.1/DTD/svg11.dtd">
<svg version="1.2" width="215.9mm" height="279.4mm" viewBox="0 0 21590 27940" preserveAspectRatio="xMidYMid" fill-rule="evenodd" stroke-width="28.222" stroke-linejoin="round" xmlns="http://www.w3.org/2000/svg" xmlns:ooo="http://xml.openoffice.org/svg/export" xmlns:xlink="http://www.w3.org/1999/xlink" xmlns:presentation="http://sun.com/xmlns/staroffice/presentation" xmlns:smil="http://www.w3.org/2001/SMIL20/" xmlns:anim="urn:oasis:names:tc:opendocument:xmlns:animation:1.0" xml:space="preserve">
 <defs class="ClipPathGroup">
  <clipPath id="presentation_clip_path" clipPathUnits="userSpaceOnUse">
   <rect x="0" y="0" width="21590" height="27940"/>
  </clipPath>
  <clipPath id="presentation_clip_path_shrink" clipPathUnits="userSpaceOnUse">
   <rect x="21" y="27" width="21547" height="27885"/>
  </clipPath>
 </defs>
 <defs class="TextShapeIndex"/>
 <defs class="EmbeddedBulletChars">
  <g id="bullet-char-template-57356" transform="scale(0.00048828125,-0.00048828125)">
   <path d="M 580,1141 L 1163,571 580,0 -4,571 580,1141 Z"/>
  </g>
  <g id="bullet-char-template-57354" transform="scale(0.00048828125,-0.00048828125)">
   <path d="M 8,1128 L 1137,1128 1137,0 8,0 8,1128 Z"/>
  </g>
  <g id="bullet-char-template-10146" transform="scale(0.00048828125,-0.00048828125)">
   <path d="M 174,0 L 602,739 174,1481 1456,739 174,0 Z M 1358,739 L 309,1346 659,739 1358,739 Z"/>
  </g>
  <g id="bullet-char-template-10132" transform="scale(0.00048828125,-0.00048828125)">
   <path d="M 2015,739 L 1276,0 717,0 1260,543 174,543 174,936 1260,936 717,1481 1274,1481 2015,739 Z"/>
  </g>
  <g id="bullet-char-template-10007" transform="scale(0.00048828125,-0.00048828125)">
   <path d="M 0,-2 C -7,14 -16,27 -25,37 L 356,567 C 262,823 215,952 215,954 215,979 228,992 255,992 264,992 276,990 289,987 310,991 331,999 354,1012 L 381,999 492,748 772,1049 836,1024 860,1049 C 881,1039 901,1025 922,1006 886,937 835,863 770,784 769,783 710,716 594,584 L 774,223 C 774,196 753,168 711,139 L 727,119 C 717,90 699,76 672,76 641,76 570,178 457,381 L 164,-76 C 142,-110 111,-127 72,-127 30,-127 9,-110 8,-76 1,-67 -2,-52 -2,-32 -2,-23 -1,-13 0,-2 Z"/>
  </g>
  <g id="bullet-char-template-10004" transform="scale(0.00048828125,-0.00048828125)">
   <path d="M 285,-33 C 182,-33 111,30 74,156 52,228 41,333 41,471 41,549 55,616 82,672 116,743 169,778 240,778 293,778 328,747 346,684 L 369,508 C 377,444 397,411 428,410 L 1163,1116 C 1174,1127 1196,1133 1229,1133 1271,1133 1292,1118 1292,1087 L 1292,965 C 1292,929 1282,901 1262,881 L 442,47 C 390,-6 338,-33 285,-33 Z"/>
  </g>
  <g id="bullet-char-template-9679" transform="scale(0.00048828125,-0.00048828125)">
   <path d="M 813,0 C 632,0 489,54 383,161 276,268 223,411 223,592 223,773 276,916 383,1023 489,1130 632,1184 813,1184 992,1184 1136,1130 1245,1023 1353,916 1407,772 1407,592 1407,412 1353,268 1245,161 1136,54 992,0 813,0 Z"/>
  </g>
  <g id="bullet-char-template-8226" transform="scale(0.00048828125,-0.00048828125)">
   <path d="M 346,457 C 273,457 209,483 155,535 101,586 74,649 74,723 74,796 101,859 155,911 209,963 273,989 346,989 419,989 480,963 531,910 582,859 608,796 608,723 608,648 583,586 532,535 482,483 420,457 346,457 Z"/>
  </g>
  <g id="bullet-char-template-8211" transform="scale(0.00048828125,-0.00048828125)">
   <path d="M -4,459 L 1135,459 1135,606 -4,606 -4,459 Z"/>
  </g>
  <g id="bullet-char-template-61548" transform="scale(0.00048828125,-0.00048828125)">
   <path d="M 173,740 C 173,903 231,1043 346,1159 462,1274 601,1332 765,1332 928,1332 1067,1274 1183,1159 1299,1043 1357,903 1357,740 1357,577 1299,437 1183,322 1067,206 928,148 765,148 601,148 462,206 346,322 231,437 173,577 173,740 Z"/>
  </g>
 </defs>
 <g>
  <g id="id2" class="Master_Slide">
   <g id="bg-id2" class="Background"/>
   <g id="bo-id2" class="BackgroundObjects">
    <g class="Group">
     <g class="com.sun.star.drawing.CustomShape">
      <g id="id3">
       <rect class="BoundingBox" stroke="none" fill="none" x="7985" y="11159" width="10160" height="1589"/>
       <path fill="rgb(0,0,0)" stroke="none" d="M 7985,11953 L 7988,11861 7998,11775 8015,11694 8040,11619 8054,11583 8070,11549 8089,11515 8108,11483 8131,11453 8153,11423 8179,11395 8206,11368 8234,11343 8264,11320 8295,11297 8327,11277 8360,11258 8396,11241 8432,11225 8470,11211 8550,11189 8635,11172 8725,11161 8821,11159 8919,11161 9011,11171 9097,11188 9178,11210 9216,11224 9253,11239 9289,11256 9322,11274 9355,11294 9386,11316 9416,11339 9443,11364 9470,11390 9494,11419 9518,11448 9539,11478 9559,11509 9576,11542 9593,11576 9607,11611 9632,11686 9649,11766 9659,11851 9662,11941 9661,12006 9656,12069 9649,12128 9638,12185 9624,12239 9608,12289 9589,12337 9566,12382 9540,12423 9513,12463 9482,12500 9449,12535 9414,12567 9376,12597 9335,12624 9291,12649 9245,12672 9194,12691 9143,12708 9088,12721 9031,12732 8969,12740 8907,12744 8840,12746 8774,12745 8709,12741 8648,12734 8589,12725 8534,12713 8482,12699 8433,12682 8387,12663 8343,12641 8302,12615 8262,12587 8225,12556 8189,12521 8156,12484 8125,12445 8096,12401 8070,12354 8047,12306 8029,12254 8012,12199 8000,12142 7992,12082 7987,12019 7985,11953 Z M 8485,11955 L 8486,12012 8491,12063 8498,12111 8508,12155 8521,12195 8528,12213 8536,12230 8545,12247 8555,12262 8565,12276 8576,12289 8587,12302 8600,12313 8613,12323 8625,12334 8640,12343 8654,12350 8668,12358 8684,12365 8699,12371 8715,12376 8733,12381 8749,12384 8786,12388 8824,12390 8863,12388 8900,12384 8918,12381 8934,12377 8951,12371 8967,12366 8983,12359 8997,12351 9011,12344 9025,12335 9038,12325 9050,12315 9062,12303 9074,12291 9084,12279 9094,12264 9103,12249 9113,12232 9120,12214 9127,12194 9140,12152 9149,12105 9157,12053 9161,11996 9162,11934 9161,11882 9156,11833 9148,11787 9139,11747 9126,11709 9118,11691 9110,11675 9101,11659 9091,11645 9081,11630 9070,11618 9058,11606 9046,11594 9033,11584 9019,11574 9006,11565 8992,11556 8976,11550 8961,11543 8946,11537 8929,11532 8912,11527 8895,11523 8859,11520 8820,11518 8783,11520 8747,11523 8731,11527 8714,11532 8698,11537 8683,11543 8668,11550 8653,11557 8640,11565 8625,11574 8613,11585 8600,11595 8587,11606 8576,11619 8565,11632 8555,11646 8545,11661 8536,11678 8528,11695 8521,11714 8508,11754 8497,11798 8491,11847 8486,11899 8485,11955 Z M 9760,11185 L 11280,11185 11280,11563 10770,11563 10770,12719 10269,12719 10269,11563 9760,11563 9760,11185 Z M 11525,11185 L 12027,11185 12027,12719 11525,12719 11525,11185 Z M 12386,11185 L 12886,11185 12886,12342 13667,12342 13667,12719 12386,12719 12386,11185 Z M 13793,11953 L 13796,11861 13806,11775 13824,11694 13848,11619 13862,11583 13879,11549 13897,11515 13917,11483 13939,11453 13962,11423 13987,11395 14014,11368 14043,11343 14072,11320 14103,11297 14136,11277 14169,11258 14204,11241 14240,11225 14278,11211 14358,11189 14443,11172 14533,11161 14629,11159 14727,11161 14820,11171 14906,11188 14986,11210 15024,11224 15061,11239 15097,11256 15131,11274 15164,11294 15194,11316 15224,11339 15252,11364 15278,11390 15303,11419 15326,11448 15348,11478 15367,11509 15385,11542 15401,11576 15415,11611 15440,11686 15457,11766 15468,11851 15471,11941 15470,12006 15464,12069 15457,12128 15446,12185 15433,12239 15416,12289 15397,12337 15374,12382 15349,12423 15321,12463 15290,12500 15258,12535 15222,12567 15184,12597 15143,12624 15099,12649 15053,12672 15003,12691 14952,12708 14896,12721 14839,12732 14778,12740 14715,12744 14649,12746 14582,12745 14518,12741 14456,12734 14398,12725 14343,12713 14290,12699 14241,12682 14195,12663 14151,12641 14110,12615 14070,12587 14033,12556 13998,12521 13965,12484 13933,12445 13904,12401 13879,12354 13855,12306 13837,12254 13820,12199 13808,12142 13800,12082 13795,12019 13793,11953 Z M 14293,11955 L 14294,12012 14300,12063 14307,12111 14316,12155 14329,12195 14336,12213 14345,12230 14354,12247 14363,12262 14373,12276 14385,12289 14396,12302 14408,12313 14421,12323 14434,12334 14448,12343 14462,12350 14477,12358 14492,12365 14507,12371 14524,12376 14541,12381 14558,12384 14594,12388 14632,12390 14671,12388 14708,12384 14726,12381 14743,12377 14759,12371 14776,12366 14791,12359 14805,12351 14820,12344 14833,12335 14846,12325 14858,12315 14871,12303 14882,12291 14892,12279 14902,12264 14912,12249 14921,12232 14928,12214 14935,12194 14949,12152 14958,12105 14965,12053 14969,11996 14970,11934 14969,11882 14964,11833 14957,11787 14948,11747 14934,11709 14926,11691 14918,11675 14910,11659 14899,11645 14889,11630 14878,11618 14867,11606 14854,11594 14841,11584 14828,11574 14814,11565 14800,11556 14785,11550 14769,11543 14754,11537 14738,11532 14720,11527 14703,11523 14667,11520 14628,11518 14591,11520 14555,11523 14539,11527 14523,11532 14506,11537 14491,11543 14477,11550 14461,11557 14448,11565 14434,11574 14421,11585 14408,11595 14396,11606 14385,11619 14373,11632 14363,11646 14354,11661 14345,11678 14336,11695 14329,11714 14316,11754 14306,11798 14300,11847 14294,11899 14293,11955 Z M 16554,12163 L 16554,11844 17327,11844 17327,12498 17218,12564 17167,12593 17117,12619 17069,12642 17022,12662 16976,12680 16933,12694 16889,12706 16844,12716 16796,12725 16747,12733 16696,12738 16642,12743 16586,12745 16529,12746 16458,12745 16392,12740 16327,12733 16267,12722 16211,12710 16156,12693 16106,12675 16059,12652 16015,12628 15973,12600 15934,12570 15899,12536 15864,12500 15833,12461 15804,12419 15778,12375 15754,12328 15734,12280 15716,12229 15703,12177 15692,12123 15684,12068 15679,12011 15677,11952 15679,11890 15685,11830 15693,11773 15705,11718 15720,11663 15739,11612 15761,11562 15787,11515 15816,11469 15848,11427 15883,11388 15922,11352 15963,11318 16008,11287 16056,11258 16107,11232 16150,11215 16196,11200 16247,11188 16300,11177 16357,11169 16418,11163 16482,11159 16550,11159 16676,11161 16732,11165 16785,11170 16833,11176 16877,11184 16916,11193 16952,11204 16985,11217 17015,11230 17045,11246 17074,11262 17100,11282 17126,11301 17149,11324 17172,11347 17193,11372 17213,11398 17231,11426 17249,11456 17264,11489 17279,11522 17292,11556 17304,11592 16822,11675 16814,11654 16804,11634 16793,11616 16781,11598 16768,11582 16753,11567 16738,11554 16721,11542 16702,11531 16683,11522 16662,11514 16640,11507 16616,11502 16592,11498 16566,11496 16539,11495 16499,11497 16462,11502 16443,11506 16426,11511 16408,11516 16392,11522 16376,11530 16360,11538 16345,11547 16331,11556 16316,11567 16303,11579 16290,11590 16277,11604 16265,11618 16255,11633 16245,11649 16234,11666 16226,11684 16218,11703 16204,11744 16193,11788 16185,11837 16181,11890 16179,11947 16181,12007 16185,12062 16193,12114 16204,12160 16218,12203 16226,12222 16235,12241 16245,12257 16255,12274 16266,12289 16278,12303 16291,12316 16304,12328 16318,12339 16333,12350 16348,12359 16363,12368 16380,12376 16397,12383 16414,12389 16432,12395 16451,12399 16471,12403 16511,12408 16554,12410 16574,12410 16595,12409 16615,12407 16636,12404 16655,12401 16674,12397 16694,12392 16713,12386 16733,12380 16753,12373 16795,12355 16840,12333 16888,12308 16888,12163 16554,12163 Z M 17643,11185 L 18144,11185 18144,12719 17643,12719 17643,11185 Z"/>
      </g>
     </g>
     <g class="Group">
      <g class="com.sun.star.drawing.PolyPolygonShape">
       <g id="id4">
        <rect class="BoundingBox" stroke="none" fill="none" x="6249" y="11160" width="614" height="1588"/>
        <path fill="rgb(255,255,56)" stroke="none" d="M 6249,11160 L 6861,11424 6861,12747 6249,12482 6249,12218 6249,11160 Z"/>
       </g>
      </g>
      <g class="com.sun.star.drawing.PolyPolygonShape">
       <g id="id5">
        <rect class="BoundingBox" stroke="none" fill="none" x="6918" y="11160" width="920" height="1588"/>
        <path fill="rgb(255,255,56)" stroke="none" d="M 7836,11160 L 7836,11689 7530,11953 7836,12218 7836,12747 6918,12218 6918,11689 7836,11160 Z"/>
       </g>
      </g>
     </g>
    </g>
   </g>
  </g>
 </g>
 <g class="SlideGroup">
  <g>
   <g id="container-id1">
    <g id="id1" class="Slide" clip-path="url(#presentation_clip_path)">
     <g class="Page"/>
    </g>
   </g>
  </g>
 </g>
</svg>